<svg xmlns="http://www.w3.org/2000/svg" viewBox="0 0 600 400">
  <title>L&A GROUP Logo</title>
  <desc>Vector logo for L&A GROUP, featuring serif typography.</desc>
  <g fill="#0a0a0a">
    <path d="M132.6,106.2h-8.3c-8.8,0-14.6,5.8-14.6,14.6v127c0,8.8,5.8,14.6,14.6,14.6h8.3v4.1H14.6v-4.1h8.3c8.8,0,14.6-5.8,14.6-14.6v-127c0-8.8-5.8-14.6-14.6-14.6h-8.3v-4.1h118V106.2z"/>
    <path d="M130.7,230.3v-4.1h-8.3c-8.8,0-14.6-5.8-14.6-14.6v-6.4h63.9c0-2.9,0.4-6,0.4-9c0-37.6-30.6-68.2-68.2-68.2c-37.6,0-68.2,30.6-68.2,68.2s30.6,68.2,68.2,68.2h63.9v-4.1H130.7z M43.6,190.1c0-28.4,23.1-51.5,51.5-51.5s51.5,23.1,51.5,51.5v6.4h-103V190.1z"/>
    <path d="M314.8,230.3l-8.2-25H233l-8.2,25h-10.3l63.5-166.4h9l63.5,166.4H314.8z M271.4,109.1l-32.2,98.2h64.4L271.4,109.1z"/>
    <path d="M368.6,230.3h-10.3l63.5-166.4h9l63.5,166.4H455l-8.2-25h-73.6L368.6,230.3z M413.2,109.1l-32.2,98.2h64.4L413.2,109.1z"/>
    <path d="M170,318.4c-17.2,0-31.1-13.9-31.1-31.1s13.9-31.1,31.1-31.1h12.4v9.3h-12.4c-12,0-21.8,9.8-21.8,21.8c0,12,9.8,21.8,21.8,21.8h12.4v9.3H170z M182.4,293.5v-24.9h9.3v24.9H182.4z"/>
    <path d="M227.6,287.3h-12.4v31.1h-9.3v-62.2h21.8c17.2,0,31.1,13.9,31.1,31.1S244.8,318.4,227.6,318.4z M227.6,265.5h-12.4v12.4h12.4c6.9,0,12.4-5.6,12.4-12.4S234.4,265.5,227.6,265.5z"/>
    <path d="M308.4,318.4h-9.3v-62.2h9.3V318.4z"/>
    <path d="M353,256.2v31.1h9.3v-31.1c0-12,9.8-21.8,21.8-21.8s21.8,9.8,21.8,21.8v31.1h9.3v-31.1c0-17.2-13.9-31.1-31.1-31.1S353,239.1,353,256.2z"/>
    <path d="M456.6,256.2h-12.4v24.9h12.4c6.9,0,12.4-5.6,12.4-12.4C469,261.8,463.4,256.2,456.6,256.2z M456.6,290.4h-12.4v28h-9.3v-62.2h21.8c12,0,21.8,9.8,21.8,21.8C478.4,286.3,468.6,290.4,456.6,290.4z"/>
    <rect x="130" y="336" width="360" height="5"/>
  </g>
</svg>